<?xml version="1.0" encoding="iso-8859-1"?>
<!-- Uploaded to: SVG Repo, www.svgrepo.com, Generator: SVG Repo Mixer Tools -->
<!DOCTYPE svg PUBLIC "-//W3C//DTD SVG 1.1//EN" "http://www.w3.org/Graphics/SVG/1.1/DTD/svg11.dtd">
<svg fill="#000000" height="800px" width="800px" version="1.1" id="Capa_1" xmlns="http://www.w3.org/2000/svg" xmlns:xlink="http://www.w3.org/1999/xlink" 
	 viewBox="0 0 489.813 489.813" xml:space="preserve">
<g id="XMLID_409_">
	<path id="XMLID_416_" d="M172.708,163.28c-6.578,0-10.279,0.526-12.218,0.883v32.937h10.626c13.425,0,21.419-6.728,21.419-17.173
		C192.535,168.945,185.097,163.448,172.708,163.28z"/>
	<path id="XMLID_415_" d="M327.209,163.631c-5.465,0-9.216,0.532-11.147,1.054v35.251c2.285,0.533,5.128,0.717,9.034,0.717
		c14.33,0,23.197-7.267,23.197-19.494C348.293,170.184,340.682,163.631,327.209,163.631z"/>
	<path id="XMLID_410_" d="M450.182,425.483h-25.291V114.669L372.72,90.729l-64.621,8.278l-1.555,0.199
		c-0.622,0.078-1.244,0.016-1.815-0.151l-75.932-23.582l76.616,7.87l66.273-22.407c1.77-0.593,3.595-0.649,5.275-0.262l2.922,0.692
		l44.576,10.509C419.953,31.874,341.383,0,244.921,0C145.494,0,64.937,33.787,64.937,75.473v267.53l64.799-15.28l2.873-0.675
		c1.829-0.429,3.669-0.306,5.324,0.246l66.273,22.413l76.617-7.88l-75.934,23.592c-0.602,0.184-1.206,0.229-1.797,0.159
		l-1.574-0.206l-64.617-8.276l-71.965,33.02v35.369H39.63c-8.214,0-14.869,6.654-14.869,14.869v34.59
		c0,8.212,6.655,14.87,14.869,14.87h410.552c8.209,0,14.869-6.658,14.869-14.87v-34.59
		C465.051,432.138,458.391,425.483,450.182,425.483z M214.138,229.875c1.636,5.852,3.253,12.11,4.745,17.695
		c1.034,3.798,0.223,7.865-2.175,10.993c-2.396,3.122-6.115,4.956-10.057,4.956h-1.711c-5.547,0-10.443-3.628-12.045-8.951
		c-1.443-4.774-3.098-11.127-4.957-18.857c-3.178-14.875-8.34-18.95-19.318-19.125h-8.131v33.562
		c0,7.383-5.988,13.372-13.381,13.372c-7.381,0-13.369-5.989-13.369-13.372v-92.56c0-6.919,5.286-12.709,12.185-13.323
		c6.989-0.611,15.125-1,23.782-1c17.691,0,30.098,2.663,38.584,9.388c7.098,5.671,10.99,13.995,10.99,24.975
		c0,15.225-10.801,25.678-21.063,29.397v0.532C206.527,210.923,211.133,218.889,214.138,229.875z M265.892,249.968
		c0,7.486-6.068,13.551-13.551,13.551c-7.48,0-13.551-6.065-13.551-13.551v-92.273c0-7.48,6.07-13.547,13.551-13.547
		c7.482,0,13.551,6.066,13.551,13.547V249.968z M364.052,208.792c-9.216,8.676-22.861,12.575-38.781,12.575
		c-3.558,0-6.749-0.175-9.209-0.532v29.312c0,7.383-5.992,13.372-13.379,13.372c-7.387,0-13.375-5.989-13.375-13.372v-92.61
		c0-6.924,5.289-12.715,12.182-13.317c6.641-0.588,14.65-0.955,24.291-0.955c16.647,0,28.532,3.178,36.492,9.556
		c7.607,6.029,12.766,15.943,12.766,27.634C375.039,192.145,371.135,202.058,364.052,208.792z"/>
</g>
</svg>