{
  "asset": {
    "generator": "glTF-Transform v4.3.0",
    "version": "2.0",
    "extras": {
      "author": "Maf'j Alvarez (https://sketchfab.com/blujay)",
      "license": "CC-BY-NC-SA-4.0 (http://creativecommons.org/licenses/by-nc-sa/4.0/)",
      "source": "https://sketchfab.com/3d-models/low-poly-fly-2a48c1d30ebb47fab89fc9868ee1d263",
      "title": "low poly fly"
    }
  },
  "accessors": [
    {
      "type": "VEC3",
      "componentType": 5126,
      "count": 1097,
      "max": [
        2.3351221084594727,
        5.783714771270752,
        4.487357139587402
      ],
      "min": [
        -2.3351221084594727,
        -4.64955997467041,
        0.7734670042991638
      ],
      "bufferView": 0,
      "byteOffset": 0
    },
    {
      "type": "VEC3",
      "componentType": 5126,
      "count": 1097,
      "bufferView": 0,
      "byteOffset": 12
    },
    {
      "type": "SCALAR",
      "componentType": 5125,
      "count": 1617,
      "bufferView": 1,
      "byteOffset": 0
    },
    {
      "type": "SCALAR",
      "componentType": 5125,
      "count": 702,
      "bufferView": 1,
      "byteOffset": 6468
    },
    {
      "type": "SCALAR",
      "componentType": 5125,
      "count": 612,
      "bufferView": 1,
      "byteOffset": 9276
    },
    {
      "type": "SCALAR",
      "componentType": 5125,
      "count": 1836,
      "bufferView": 1,
      "byteOffset": 11724
    },
    {
      "type": "SCALAR",
      "componentType": 5125,
      "count": 102,
      "bufferView": 1,
      "byteOffset": 19068
    },
    {
      "type": "SCALAR",
      "componentType": 5125,
      "count": 222,
      "bufferView": 1,
      "byteOffset": 19476
    },
    {
      "type": "SCALAR",
      "componentType": 5125,
      "count": 60,
      "bufferView": 1,
      "byteOffset": 20364
    },
    {
      "type": "SCALAR",
      "componentType": 5125,
      "count": 1080,
      "bufferView": 1,
      "byteOffset": 20604
    },
    {
      "type": "VEC3",
      "componentType": 5126,
      "count": 480,
      "max": [
        1.75757896900177,
        5.757894992828369,
        3.663817882537842
      ],
      "min": [
        -1.75757896900177,
        -4.61123514175415,
        0.013218999840319157
      ],
      "bufferView": 2,
      "byteOffset": 0
    },
    {
      "type": "VEC3",
      "componentType": 5126,
      "count": 480,
      "bufferView": 2,
      "byteOffset": 12
    },
    {
      "type": "VEC3",
      "componentType": 5126,
      "count": 374,
      "max": [
        2.718414068222046,
        6.959834098815918,
        2.8144819736480713
      ],
      "min": [
        -2.909862995147705,
        -0.39091798663139343,
        -0.2549949884414673
      ],
      "bufferView": 3,
      "byteOffset": 0
    },
    {
      "type": "VEC3",
      "componentType": 5126,
      "count": 374,
      "bufferView": 3,
      "byteOffset": 12
    },
    {
      "type": "VEC3",
      "componentType": 5126,
      "count": 1204,
      "max": [
        2.1854441165924072,
        6.985405921936035,
        3.574934959411621
      ],
      "min": [
        -2.2702529430389404,
        0.06716299802064896,
        0.19218899309635162
      ],
      "bufferView": 4,
      "byteOffset": 0
    },
    {
      "type": "VEC3",
      "componentType": 5126,
      "count": 1204,
      "bufferView": 4,
      "byteOffset": 12
    },
    {
      "type": "VEC3",
      "componentType": 5126,
      "count": 58,
      "max": [
        6.299276828765869,
        2.2854480743408203,
        3.775110960006714
      ],
      "min": [
        -5.540777206420898,
        -3.6621620655059814,
        1.9931260347366333
      ],
      "bufferView": 5,
      "byteOffset": 0
    },
    {
      "type": "VEC3",
      "componentType": 5126,
      "count": 58,
      "bufferView": 5,
      "byteOffset": 12
    },
    {
      "type": "VEC3",
      "componentType": 5126,
      "count": 110,
      "max": [
        6.312087059020996,
        2.2075440883636475,
        4.693367004394531
      ],
      "min": [
        -5.540777206420898,
        -3.4126970767974854,
        2.1687939167022705
      ],
      "bufferView": 6,
      "byteOffset": 0
    },
    {
      "type": "VEC3",
      "componentType": 5126,
      "count": 110,
      "bufferView": 6,
      "byteOffset": 12
    },
    {
      "type": "VEC3",
      "componentType": 5126,
      "count": 24,
      "max": [
        1.3108810186386108,
        5.472389221191406,
        2.885124921798706
      ],
      "min": [
        -1.5926189422607422,
        5.129333972930908,
        2.182523012161255
      ],
      "bufferView": 7,
      "byteOffset": 0
    },
    {
      "type": "VEC3",
      "componentType": 5126,
      "count": 24,
      "bufferView": 7,
      "byteOffset": 12
    },
    {
      "type": "VEC3",
      "componentType": 5126,
      "count": 744,
      "max": [
        1.7179490327835083,
        5.502772808074951,
        3.3701720237731934
      ],
      "min": [
        -1.873075008392334,
        3.467219114303589,
        1.3971810340881348
      ],
      "bufferView": 8,
      "byteOffset": 0
    },
    {
      "type": "VEC3",
      "componentType": 5126,
      "count": 744,
      "bufferView": 8,
      "byteOffset": 12
    }
  ],
  "bufferViews": [
    {
      "buffer": 0,
      "byteOffset": 0,
      "byteLength": 26328,
      "byteStride": 24,
      "target": 34962
    },
    {
      "buffer": 0,
      "byteOffset": 26328,
      "byteLength": 24924,
      "target": 34963
    },
    {
      "buffer": 0,
      "byteOffset": 51252,
      "byteLength": 11520,
      "byteStride": 24,
      "target": 34962
    },
    {
      "buffer": 0,
      "byteOffset": 62772,
      "byteLength": 8976,
      "byteStride": 24,
      "target": 34962
    },
    {
      "buffer": 0,
      "byteOffset": 71748,
      "byteLength": 28896,
      "byteStride": 24,
      "target": 34962
    },
    {
      "buffer": 0,
      "byteOffset": 100644,
      "byteLength": 1392,
      "byteStride": 24,
      "target": 34962
    },
    {
      "buffer": 0,
      "byteOffset": 102036,
      "byteLength": 2640,
      "byteStride": 24,
      "target": 34962
    },
    {
      "buffer": 0,
      "byteOffset": 104676,
      "byteLength": 576,
      "byteStride": 24,
      "target": 34962
    },
    {
      "buffer": 0,
      "byteOffset": 105252,
      "byteLength": 17856,
      "byteStride": 24,
      "target": 34962
    }
  ],
  "buffers": [
    {
      "uri": "scene.bin",
      "byteLength": 123108
    }
  ],
  "materials": [
    {
      "name": "black",
      "doubleSided": true,
      "pbrMetallicRoughness": {
        "baseColorFactor": [
          0,
          0,
          0,
          1
        ],
        "metallicFactor": 0
      },
      "extensions": {
        "KHR_materials_ior": {
          "ior": 1000
        },
        "KHR_materials_specular": {
          "specularColorFactor": [
            0,
            0,
            0
          ]
        }
      }
    },
    {
      "name": "blue",
      "doubleSided": true,
      "pbrMetallicRoughness": {
        "baseColorFactor": [
          0.0091422554,
          0.0586918811,
          0.2903871412,
          1
        ],
        "roughnessFactor": 0.843491542,
        "metallicFactor": 0
      },
      "extensions": {
        "KHR_materials_ior": {
          "ior": 1000
        },
        "KHR_materials_specular": {
          "specularColorFactor": [
            0.0443978659,
            0.0443978659,
            0.0443978659
          ]
        }
      }
    },
    {
      "name": "brown",
      "doubleSided": true,
      "pbrMetallicRoughness": {
        "baseColorFactor": [
          0.03014924851885128,
          0.008410358634702596,
          0.007637292875624014,
          1
        ],
        "metallicFactor": 0
      },
      "extensions": {
        "KHR_materials_ior": {
          "ior": 1000
        },
        "KHR_materials_specular": {
          "specularColorFactor": [
            0,
            0,
            0
          ]
        }
      }
    },
    {
      "name": "emerald",
      "doubleSided": true,
      "pbrMetallicRoughness": {
        "baseColorFactor": [
          0.003129,
          0.154454,
          0.117146,
          1
        ],
        "roughnessFactor": 0.843491542,
        "metallicFactor": 0
      },
      "extensions": {
        "KHR_materials_ior": {
          "ior": 1000
        },
        "KHR_materials_specular": {
          "specularColorFactor": [
            0.1663490854,
            0.1663490854,
            0.1663490854
          ]
        }
      }
    },
    {
      "name": "fly-white",
      "alphaMode": "BLEND",
      "doubleSided": true,
      "pbrMetallicRoughness": {
        "baseColorFactor": [
          0.64,
          0.64,
          0.64,
          0.743772
        ],
        "roughnessFactor": 0.25438262199999995,
        "metallicFactor": 0
      },
      "extensions": {
        "KHR_materials_ior": {
          "ior": 1000
        },
        "KHR_materials_specular": {
          "specularColorFactor": [
            0,
            0,
            0
          ]
        }
      }
    },
    {
      "name": "flywings-dark",
      "alphaMode": "BLEND",
      "doubleSided": true,
      "pbrMetallicRoughness": {
        "baseColorFactor": [
          0.650831,
          0.8,
          0.656622,
          0.441281
        ],
        "roughnessFactor": 0.7116996951,
        "metallicFactor": 0
      },
      "extensions": {
        "KHR_materials_ior": {
          "ior": 1000
        },
        "KHR_materials_specular": {
          "specularColorFactor": [
            0,
            0,
            0
          ]
        }
      }
    },
    {
      "name": "glass",
      "alphaMode": "BLEND",
      "doubleSided": true,
      "pbrMetallicRoughness": {
        "baseColorFactor": [
          0.072009,
          0.001764,
          0.001875,
          0.042705
        ],
        "roughnessFactor": 0.843491542,
        "metallicFactor": 0
      },
      "extensions": {
        "KHR_materials_ior": {
          "ior": 1000
        },
        "KHR_materials_specular": {
          "specularColorFactor": [
            0.05,
            0.05,
            0.05
          ]
        }
      }
    },
    {
      "name": "red-eye",
      "doubleSided": true,
      "pbrMetallicRoughness": {
        "baseColorFactor": [
          0.3980456015,
          0,
          0.0003924369,
          1
        ],
        "roughnessFactor": 0.35194359760000005,
        "metallicFactor": 0
      },
      "extensions": {
        "KHR_materials_ior": {
          "ior": 1000
        },
        "KHR_materials_specular": {
          "specularColorFactor": [
            0,
            0,
            0
          ]
        }
      }
    }
  ],
  "meshes": [
    {
      "name": "Object_0",
      "primitives": [
        {
          "attributes": {
            "NORMAL": 1,
            "POSITION": 0
          },
          "mode": 4,
          "material": 1,
          "indices": 2
        }
      ]
    },
    {
      "name": "Object_1",
      "primitives": [
        {
          "attributes": {
            "NORMAL": 11,
            "POSITION": 10
          },
          "mode": 4,
          "material": 3,
          "indices": 3
        }
      ]
    },
    {
      "name": "Object_2",
      "primitives": [
        {
          "attributes": {
            "NORMAL": 13,
            "POSITION": 12
          },
          "mode": 4,
          "material": 0,
          "indices": 4
        }
      ]
    },
    {
      "name": "Object_3",
      "primitives": [
        {
          "attributes": {
            "NORMAL": 15,
            "POSITION": 14
          },
          "mode": 4,
          "material": 2,
          "indices": 5
        }
      ]
    },
    {
      "name": "Object_4",
      "primitives": [
        {
          "attributes": {
            "NORMAL": 17,
            "POSITION": 16
          },
          "mode": 4,
          "material": 4,
          "indices": 6
        }
      ]
    },
    {
      "name": "Object_5",
      "primitives": [
        {
          "attributes": {
            "NORMAL": 19,
            "POSITION": 18
          },
          "mode": 4,
          "material": 5,
          "indices": 7
        }
      ]
    },
    {
      "name": "Object_6",
      "primitives": [
        {
          "attributes": {
            "NORMAL": 21,
            "POSITION": 20
          },
          "mode": 4,
          "material": 6,
          "indices": 8
        }
      ]
    },
    {
      "name": "Object_7",
      "primitives": [
        {
          "attributes": {
            "NORMAL": 23,
            "POSITION": 22
          },
          "mode": 4,
          "material": 7,
          "indices": 9
        }
      ]
    }
  ],
  "nodes": [
    {
      "name": "Sketchfab_model",
      "rotation": [
        -0.7071067811865475,
        0,
        0,
        0.7071067811865476
      ],
      "scale": [
        0.24912334978580475,
        0.24912334978580475,
        0.24912334978580475
      ],
      "children": [
        1
      ]
    },
    {
      "name": "fly.obj.cleaner.materialmerger.gles",
      "children": [
        2,
        3,
        4,
        5,
        6,
        7,
        8,
        9
      ]
    },
    {
      "name": "Object_2",
      "mesh": 0
    },
    {
      "name": "Object_3",
      "mesh": 1
    },
    {
      "name": "Object_4",
      "mesh": 2
    },
    {
      "name": "Object_5",
      "mesh": 3
    },
    {
      "name": "Object_6",
      "mesh": 4
    },
    {
      "name": "Object_7",
      "mesh": 5
    },
    {
      "name": "Object_8",
      "mesh": 6
    },
    {
      "name": "Object_9",
      "mesh": 7
    }
  ],
  "scenes": [
    {
      "name": "Sketchfab_Scene",
      "nodes": [
        0
      ]
    }
  ],
  "scene": 0,
  "extensionsUsed": [
    "KHR_materials_ior",
    "KHR_materials_specular"
  ]
}