{
	"asset":{
		"generator":"Khronos glTF Blender I/O v4.4.56",
		"version":"2.0"
	},
	"extensionsUsed":[
		"KHR_materials_specular",
		"KHR_materials_ior"
	],
	"scene":0,
	"scenes":[
		{
			"name":"Scene",
			"nodes":[
				9
			]
		}
	],
	"nodes":[
		{
			"mesh":0,
			"name":"Object_2"
		},
		{
			"mesh":1,
			"name":"Object_3"
		},
		{
			"mesh":2,
			"name":"Object_4"
		},
		{
			"mesh":3,
			"name":"Object_5"
		},
		{
			"mesh":4,
			"name":"Object_8"
		},
		{
			"mesh":5,
			"name":"Object_9"
		},
		{
			"mesh":6,
			"name":"wing-left"
		},
		{
			"mesh":7,
			"name":"wing-right"
		},
		{
			"children":[
				0,
				1,
				2,
				3,
				4,
				5,
				6,
				7
			],
			"name":"fly.obj.cleaner.materialmerger.gles"
		},
		{
			"children":[
				8
			],
			"name":"Sketchfab_model",
			"rotation":[
				-0.70710688829422,
				0,
				0,
				0.7071066498756409
			],
			"scale":[
				0.24912334978580475,
				0.24912337958812714,
				0.24912337958812714
			]
		}
	],
	"animations":[
		{
			"channels":[
				{
					"sampler":0,
					"target":{
						"node":6,
						"path":"translation"
					}
				},
				{
					"sampler":1,
					"target":{
						"node":6,
						"path":"rotation"
					}
				},
				{
					"sampler":2,
					"target":{
						"node":6,
						"path":"scale"
					}
				}
			],
			"name":"wing-leftAction",
			"samplers":[
				{
					"input":30,
					"interpolation":"LINEAR",
					"output":31
				},
				{
					"input":30,
					"interpolation":"LINEAR",
					"output":32
				},
				{
					"input":33,
					"interpolation":"STEP",
					"output":34
				}
			]
		},
		{
			"channels":[
				{
					"sampler":0,
					"target":{
						"node":7,
						"path":"translation"
					}
				},
				{
					"sampler":1,
					"target":{
						"node":7,
						"path":"rotation"
					}
				},
				{
					"sampler":2,
					"target":{
						"node":7,
						"path":"scale"
					}
				}
			],
			"name":"wing-rightAction",
			"samplers":[
				{
					"input":35,
					"interpolation":"LINEAR",
					"output":36
				},
				{
					"input":35,
					"interpolation":"LINEAR",
					"output":37
				},
				{
					"input":38,
					"interpolation":"STEP",
					"output":39
				}
			]
		}
	],
	"materials":[
		{
			"doubleSided":true,
			"extensions":{
				"KHR_materials_specular":{
					"specularColorFactor":[
						0.04439786449074745,
						0.04439786449074745,
						0.04439786449074745
					]
				},
				"KHR_materials_ior":{
					"ior":1000
				}
			},
			"name":"blue",
			"pbrMetallicRoughness":{
				"baseColorFactor":[
					0.009142255410552025,
					0.058691881597042084,
					0.2903871536254883,
					1
				],
				"metallicFactor":0,
				"roughnessFactor":0.8434915542602539
			}
		},
		{
			"doubleSided":true,
			"extensions":{
				"KHR_materials_specular":{
					"specularColorFactor":[
						0.16634908318519592,
						0.16634908318519592,
						0.16634908318519592
					]
				},
				"KHR_materials_ior":{
					"ior":1000
				}
			},
			"name":"emerald",
			"pbrMetallicRoughness":{
				"baseColorFactor":[
					0.003129000077024102,
					0.15445399284362793,
					0.11714600026607513,
					1
				],
				"metallicFactor":0,
				"roughnessFactor":0.8434915542602539
			}
		},
		{
			"doubleSided":true,
			"extensions":{
				"KHR_materials_specular":{
					"specularColorFactor":[
						0.0,
						0.0,
						0.0
					]
				},
				"KHR_materials_ior":{
					"ior":1000
				}
			},
			"name":"black",
			"pbrMetallicRoughness":{
				"baseColorFactor":[
					0,
					0,
					0,
					1
				],
				"metallicFactor":0
			}
		},
		{
			"doubleSided":true,
			"extensions":{
				"KHR_materials_specular":{
					"specularColorFactor":[
						0.0,
						0.0,
						0.0
					]
				},
				"KHR_materials_ior":{
					"ior":1000
				}
			},
			"name":"brown",
			"pbrMetallicRoughness":{
				"baseColorFactor":[
					0.030149249359965324,
					0.008410358801484108,
					0.007637293078005314,
					1
				],
				"metallicFactor":0
			}
		},
		{
			"alphaMode":"BLEND",
			"doubleSided":true,
			"extensions":{
				"KHR_materials_specular":{
					"specularColorFactor":[
						0.05000000074505806,
						0.05000000074505806,
						0.05000000074505806
					]
				},
				"KHR_materials_ior":{
					"ior":1000
				}
			},
			"name":"glass",
			"pbrMetallicRoughness":{
				"baseColorFactor":[
					0.07200899720191956,
					0.0017640000442042947,
					0.0018749999580904841,
					0.042704999446868896
				],
				"metallicFactor":0,
				"roughnessFactor":0.8434915542602539
			}
		},
		{
			"doubleSided":true,
			"extensions":{
				"KHR_materials_specular":{
					"specularColorFactor":[
						0.0,
						0.0,
						0.0
					]
				},
				"KHR_materials_ior":{
					"ior":1000
				}
			},
			"name":"red-eye",
			"pbrMetallicRoughness":{
				"baseColorFactor":[
					0.3980455994606018,
					0,
					0.0003924368938896805,
					1
				],
				"metallicFactor":0,
				"roughnessFactor":0.35194361209869385
			}
		},
		{
			"alphaMode":"BLEND",
			"doubleSided":true,
			"extensions":{
				"KHR_materials_specular":{
					"specularColorFactor":[
						0.0,
						0.0,
						0.0
					]
				},
				"KHR_materials_ior":{
					"ior":1000
				}
			},
			"name":"fly-white",
			"pbrMetallicRoughness":{
				"baseColorFactor":[
					0.6399999856948853,
					0.6399999856948853,
					0.6399999856948853,
					0.7437719702720642
				],
				"metallicFactor":0,
				"roughnessFactor":0.2543826103210449
			}
		},
		{
			"alphaMode":"BLEND",
			"doubleSided":true,
			"extensions":{
				"KHR_materials_specular":{
					"specularColorFactor":[
						0.0,
						0.0,
						0.0
					]
				},
				"KHR_materials_ior":{
					"ior":1000
				}
			},
			"name":"flywings-dark",
			"pbrMetallicRoughness":{
				"baseColorFactor":[
					0.6508309841156006,
					0.800000011920929,
					0.6566219925880432,
					0.4412809908390045
				],
				"metallicFactor":0,
				"roughnessFactor":0.7116997241973877
			}
		}
	],
	"meshes":[
		{
			"name":"Object_0",
			"primitives":[
				{
					"attributes":{
						"POSITION":0,
						"NORMAL":1
					},
					"indices":2,
					"material":0
				}
			]
		},
		{
			"name":"Object_1",
			"primitives":[
				{
					"attributes":{
						"POSITION":3,
						"NORMAL":4
					},
					"indices":5,
					"material":1
				}
			]
		},
		{
			"name":"Object_2",
			"primitives":[
				{
					"attributes":{
						"POSITION":6,
						"NORMAL":7
					},
					"indices":8,
					"material":2
				}
			]
		},
		{
			"name":"Object_3",
			"primitives":[
				{
					"attributes":{
						"POSITION":9,
						"NORMAL":10
					},
					"indices":11,
					"material":3
				}
			]
		},
		{
			"name":"Object_6",
			"primitives":[
				{
					"attributes":{
						"POSITION":12,
						"NORMAL":13
					},
					"indices":14,
					"material":4
				}
			]
		},
		{
			"name":"Object_7",
			"primitives":[
				{
					"attributes":{
						"POSITION":15,
						"NORMAL":16
					},
					"indices":17,
					"material":5
				}
			]
		},
		{
			"name":"Object_4",
			"primitives":[
				{
					"attributes":{
						"POSITION":18,
						"NORMAL":19
					},
					"indices":20,
					"material":6
				},
				{
					"attributes":{
						"POSITION":21,
						"NORMAL":22
					},
					"indices":23,
					"material":7
				}
			]
		},
		{
			"name":"Object_4.001",
			"primitives":[
				{
					"attributes":{
						"POSITION":24,
						"NORMAL":25
					},
					"indices":26,
					"material":6
				},
				{
					"attributes":{
						"POSITION":27,
						"NORMAL":28
					},
					"indices":29,
					"material":7
				}
			]
		}
	],
	"accessors":[
		{
			"bufferView":0,
			"componentType":5126,
			"count":1113,
			"max":[
				2.3351221084594727,
				5.783714771270752,
				4.487357139587402
			],
			"min":[
				-2.3351221084594727,
				-4.64955997467041,
				0.7734670042991638
			],
			"type":"VEC3"
		},
		{
			"bufferView":1,
			"componentType":5126,
			"count":1113,
			"type":"VEC3"
		},
		{
			"bufferView":2,
			"componentType":5123,
			"count":1617,
			"type":"SCALAR"
		},
		{
			"bufferView":3,
			"componentType":5126,
			"count":486,
			"max":[
				1.75757896900177,
				5.757894992828369,
				3.663817882537842
			],
			"min":[
				-1.75757896900177,
				-4.61123514175415,
				0.013218999840319157
			],
			"type":"VEC3"
		},
		{
			"bufferView":4,
			"componentType":5126,
			"count":486,
			"type":"VEC3"
		},
		{
			"bufferView":5,
			"componentType":5123,
			"count":702,
			"type":"SCALAR"
		},
		{
			"bufferView":6,
			"componentType":5126,
			"count":382,
			"max":[
				2.718414068222046,
				6.959834098815918,
				2.8144819736480713
			],
			"min":[
				-2.909862995147705,
				-0.39091798663139343,
				-0.2549949884414673
			],
			"type":"VEC3"
		},
		{
			"bufferView":7,
			"componentType":5126,
			"count":382,
			"type":"VEC3"
		},
		{
			"bufferView":8,
			"componentType":5123,
			"count":612,
			"type":"SCALAR"
		},
		{
			"bufferView":9,
			"componentType":5126,
			"count":1216,
			"max":[
				2.1854441165924072,
				6.985405921936035,
				3.574934959411621
			],
			"min":[
				-2.2702529430389404,
				0.06716299802064896,
				0.19218899309635162
			],
			"type":"VEC3"
		},
		{
			"bufferView":10,
			"componentType":5126,
			"count":1216,
			"type":"VEC3"
		},
		{
			"bufferView":11,
			"componentType":5123,
			"count":1836,
			"type":"SCALAR"
		},
		{
			"bufferView":12,
			"componentType":5126,
			"count":27,
			"max":[
				1.3108810186386108,
				5.472389221191406,
				2.885124921798706
			],
			"min":[
				-1.5926189422607422,
				5.129333972930908,
				2.182523012161255
			],
			"type":"VEC3"
		},
		{
			"bufferView":13,
			"componentType":5126,
			"count":27,
			"type":"VEC3"
		},
		{
			"bufferView":14,
			"componentType":5123,
			"count":60,
			"type":"SCALAR"
		},
		{
			"bufferView":15,
			"componentType":5126,
			"count":768,
			"max":[
				1.7179490327835083,
				5.502772808074951,
				3.3701720237731934
			],
			"min":[
				-1.873075008392334,
				3.467219114303589,
				1.3971810340881348
			],
			"type":"VEC3"
		},
		{
			"bufferView":16,
			"componentType":5126,
			"count":768,
			"type":"VEC3"
		},
		{
			"bufferView":17,
			"componentType":5123,
			"count":1080,
			"type":"SCALAR"
		},
		{
			"bufferView":18,
			"componentType":5126,
			"count":29,
			"max":[
				-0.4422770142555237,
				2.2854480743408203,
				3.775110960006714
			],
			"min":[
				-5.540777206420898,
				-3.6621620655059814,
				1.9931260347366333
			],
			"type":"VEC3"
		},
		{
			"bufferView":19,
			"componentType":5126,
			"count":29,
			"type":"VEC3"
		},
		{
			"bufferView":20,
			"componentType":5123,
			"count":51,
			"type":"SCALAR"
		},
		{
			"bufferView":21,
			"componentType":5126,
			"count":55,
			"max":[
				-0.5141770243644714,
				2.2075440883636475,
				4.693367004394531
			],
			"min":[
				-5.540777206420898,
				-3.4126970767974854,
				2.1687939167022705
			],
			"type":"VEC3"
		},
		{
			"bufferView":22,
			"componentType":5126,
			"count":55,
			"type":"VEC3"
		},
		{
			"bufferView":23,
			"componentType":5123,
			"count":111,
			"type":"SCALAR"
		},
		{
			"bufferView":24,
			"componentType":5126,
			"count":29,
			"max":[
				6.299276828765869,
				2.2540600299835205,
				3.772718906402588
			],
			"min":[
				0.5306950211524963,
				-3.482156991958618,
				2.1029810905456543
			],
			"type":"VEC3"
		},
		{
			"bufferView":25,
			"componentType":5126,
			"count":29,
			"type":"VEC3"
		},
		{
			"bufferView":26,
			"componentType":5123,
			"count":51,
			"type":"SCALAR"
		},
		{
			"bufferView":27,
			"componentType":5126,
			"count":55,
			"max":[
				6.312087059020996,
				2.1509881019592285,
				4.609960079193115
			],
			"min":[
				0.5761359930038452,
				-3.2578699588775635,
				2.511967897415161
			],
			"type":"VEC3"
		},
		{
			"bufferView":28,
			"componentType":5126,
			"count":55,
			"type":"VEC3"
		},
		{
			"bufferView":29,
			"componentType":5123,
			"count":111,
			"type":"SCALAR"
		},
		{
			"bufferView":30,
			"componentType":5126,
			"count":10,
			"max":[
				0.4166666666666667
			],
			"min":[
				0.041666666666666664
			],
			"type":"SCALAR"
		},
		{
			"bufferView":31,
			"componentType":5126,
			"count":10,
			"type":"VEC3"
		},
		{
			"bufferView":32,
			"componentType":5126,
			"count":10,
			"type":"VEC4"
		},
		{
			"bufferView":33,
			"componentType":5126,
			"count":2,
			"max":[
				0.4166666666666667
			],
			"min":[
				0.041666666666666664
			],
			"type":"SCALAR"
		},
		{
			"bufferView":34,
			"componentType":5126,
			"count":2,
			"type":"VEC3"
		},
		{
			"bufferView":35,
			"componentType":5126,
			"count":11,
			"max":[
				0.4166666666666667
			],
			"min":[
				0
			],
			"type":"SCALAR"
		},
		{
			"bufferView":36,
			"componentType":5126,
			"count":11,
			"type":"VEC3"
		},
		{
			"bufferView":37,
			"componentType":5126,
			"count":11,
			"type":"VEC4"
		},
		{
			"bufferView":38,
			"componentType":5126,
			"count":2,
			"max":[
				0.4166666666666667
			],
			"min":[
				0
			],
			"type":"SCALAR"
		},
		{
			"bufferView":39,
			"componentType":5126,
			"count":2,
			"type":"VEC3"
		}
	],
	"bufferViews":[
		{
			"buffer":0,
			"byteLength":13356,
			"byteOffset":0,
			"target":34962
		},
		{
			"buffer":0,
			"byteLength":13356,
			"byteOffset":13356,
			"target":34962
		},
		{
			"buffer":0,
			"byteLength":3234,
			"byteOffset":26712,
			"target":34963
		},
		{
			"buffer":0,
			"byteLength":5832,
			"byteOffset":29948,
			"target":34962
		},
		{
			"buffer":0,
			"byteLength":5832,
			"byteOffset":35780,
			"target":34962
		},
		{
			"buffer":0,
			"byteLength":1404,
			"byteOffset":41612,
			"target":34963
		},
		{
			"buffer":0,
			"byteLength":4584,
			"byteOffset":43016,
			"target":34962
		},
		{
			"buffer":0,
			"byteLength":4584,
			"byteOffset":47600,
			"target":34962
		},
		{
			"buffer":0,
			"byteLength":1224,
			"byteOffset":52184,
			"target":34963
		},
		{
			"buffer":0,
			"byteLength":14592,
			"byteOffset":53408,
			"target":34962
		},
		{
			"buffer":0,
			"byteLength":14592,
			"byteOffset":68000,
			"target":34962
		},
		{
			"buffer":0,
			"byteLength":3672,
			"byteOffset":82592,
			"target":34963
		},
		{
			"buffer":0,
			"byteLength":324,
			"byteOffset":86264,
			"target":34962
		},
		{
			"buffer":0,
			"byteLength":324,
			"byteOffset":86588,
			"target":34962
		},
		{
			"buffer":0,
			"byteLength":120,
			"byteOffset":86912,
			"target":34963
		},
		{
			"buffer":0,
			"byteLength":9216,
			"byteOffset":87032,
			"target":34962
		},
		{
			"buffer":0,
			"byteLength":9216,
			"byteOffset":96248,
			"target":34962
		},
		{
			"buffer":0,
			"byteLength":2160,
			"byteOffset":105464,
			"target":34963
		},
		{
			"buffer":0,
			"byteLength":348,
			"byteOffset":107624,
			"target":34962
		},
		{
			"buffer":0,
			"byteLength":348,
			"byteOffset":107972,
			"target":34962
		},
		{
			"buffer":0,
			"byteLength":102,
			"byteOffset":108320,
			"target":34963
		},
		{
			"buffer":0,
			"byteLength":660,
			"byteOffset":108424,
			"target":34962
		},
		{
			"buffer":0,
			"byteLength":660,
			"byteOffset":109084,
			"target":34962
		},
		{
			"buffer":0,
			"byteLength":222,
			"byteOffset":109744,
			"target":34963
		},
		{
			"buffer":0,
			"byteLength":348,
			"byteOffset":109968,
			"target":34962
		},
		{
			"buffer":0,
			"byteLength":348,
			"byteOffset":110316,
			"target":34962
		},
		{
			"buffer":0,
			"byteLength":102,
			"byteOffset":110664,
			"target":34963
		},
		{
			"buffer":0,
			"byteLength":660,
			"byteOffset":110768,
			"target":34962
		},
		{
			"buffer":0,
			"byteLength":660,
			"byteOffset":111428,
			"target":34962
		},
		{
			"buffer":0,
			"byteLength":222,
			"byteOffset":112088,
			"target":34963
		},
		{
			"buffer":0,
			"byteLength":40,
			"byteOffset":112312
		},
		{
			"buffer":0,
			"byteLength":120,
			"byteOffset":112352
		},
		{
			"buffer":0,
			"byteLength":160,
			"byteOffset":112472
		},
		{
			"buffer":0,
			"byteLength":8,
			"byteOffset":112632
		},
		{
			"buffer":0,
			"byteLength":24,
			"byteOffset":112640
		},
		{
			"buffer":0,
			"byteLength":44,
			"byteOffset":112664
		},
		{
			"buffer":0,
			"byteLength":132,
			"byteOffset":112708
		},
		{
			"buffer":0,
			"byteLength":176,
			"byteOffset":112840
		},
		{
			"buffer":0,
			"byteLength":8,
			"byteOffset":113016
		},
		{
			"buffer":0,
			"byteLength":24,
			"byteOffset":113024
		}
	],
	"buffers":[
		{
			"byteLength":113048,
			"uri":"fly2-animation.bin"
		}
	]
}
