{
  "asset": {
    "generator": "glTF-Transform v4.3.0",
    "version": "2.0",
    "extras": {
      "author": "egorlichenko8 (https://sketchfab.com/egorlichenko8)",
      "license": "CC-BY-4.0 (http://creativecommons.org/licenses/by/4.0/)",
      "source": "https://sketchfab.com/3d-models/low-poly-apple-ac7082d611ad4eb69a0106f93967b515",
      "title": "Low-poly Apple"
    }
  },
  "accessors": [
    {
      "type": "VEC3",
      "componentType": 5126,
      "count": 96,
      "max": [
        0.4858553111553192,
        0.17338882386684418,
        1.5805302858352661
      ],
      "min": [
        -0.11870791763067245,
        -0.07773633301258087,
        1.0025653839111328
      ],
      "bufferView": 0,
      "byteOffset": 0
    },
    {
      "type": "VEC3",
      "componentType": 5126,
      "count": 96,
      "bufferView": 0,
      "byteOffset": 12
    },
    {
      "type": "VEC2",
      "componentType": 5126,
      "count": 96,
      "bufferView": 0,
      "byteOffset": 24
    },
    {
      "type": "SCALAR",
      "componentType": 5125,
      "count": 132,
      "bufferView": 1,
      "byteOffset": 0
    },
    {
      "type": "SCALAR",
      "componentType": 5125,
      "count": 432,
      "bufferView": 1,
      "byteOffset": 528
    },
    {
      "type": "SCALAR",
      "componentType": 5125,
      "count": 198,
      "bufferView": 1,
      "byteOffset": 2256
    },
    {
      "type": "VEC3",
      "componentType": 5126,
      "count": 312,
      "max": [
        0.5580124855041504,
        0.5580124855041504,
        1.2477562427520752
      ],
      "min": [
        -0.5580124855041504,
        -0.5580124855041504,
        0.21875
      ],
      "bufferView": 2,
      "byteOffset": 0
    },
    {
      "type": "VEC3",
      "componentType": 5126,
      "count": 312,
      "bufferView": 2,
      "byteOffset": 12
    },
    {
      "type": "VEC2",
      "componentType": 5126,
      "count": 312,
      "bufferView": 2,
      "byteOffset": 24
    },
    {
      "type": "VEC3",
      "componentType": 5126,
      "count": 163,
      "max": [
        0.001651222351938486,
        0.06415122002363205,
        1.5625
      ],
      "min": [
        -0.12665122747421265,
        -0.06415122002363205,
        0.3125
      ],
      "bufferView": 3,
      "byteOffset": 0
    },
    {
      "type": "VEC3",
      "componentType": 5126,
      "count": 163,
      "bufferView": 3,
      "byteOffset": 12
    },
    {
      "type": "VEC2",
      "componentType": 5126,
      "count": 163,
      "bufferView": 3,
      "byteOffset": 24
    }
  ],
  "bufferViews": [
    {
      "buffer": 0,
      "byteOffset": 0,
      "byteLength": 3072,
      "byteStride": 32,
      "target": 34962
    },
    {
      "buffer": 0,
      "byteOffset": 3072,
      "byteLength": 3048,
      "target": 34963
    },
    {
      "buffer": 0,
      "byteOffset": 6120,
      "byteLength": 9984,
      "byteStride": 32,
      "target": 34962
    },
    {
      "buffer": 0,
      "byteOffset": 16104,
      "byteLength": 5216,
      "byteStride": 32,
      "target": 34962
    }
  ],
  "samplers": [
    {
      "magFilter": 9729,
      "minFilter": 9987,
      "wrapS": 10497,
      "wrapT": 10497
    }
  ],
  "textures": [
    {
      "source": 0,
      "sampler": 0
    },
    {
      "source": 1,
      "sampler": 0
    },
    {
      "source": 2,
      "sampler": 0
    }
  ],
  "images": [
    {
      "mimeType": "image/png",
      "uri": "textures/m_091ba47d-ba14-e3c3-9759-4c285b5669dd_diffuse.png"
    },
    {
      "mimeType": "image/png",
      "uri": "textures/m_55405b63-6e7f-154a-48a9-db139e3f9f20_diffuse.png"
    },
    {
      "mimeType": "image/png",
      "uri": "textures/m_c96b7e96-1486-deff-3ad8-e93356742726_diffuse.png"
    }
  ],
  "buffers": [
    {
      "uri": "scene.bin",
      "byteLength": 21320
    }
  ],
  "materials": [
    {
      "name": "m_091ba47d-ba14-e3c3-9759-4c285b5669dd",
      "doubleSided": true,
      "pbrMetallicRoughness": {
        "roughnessFactor": 0.5836208262729943,
        "metallicFactor": 0,
        "baseColorTexture": {
          "index": 0
        }
      },
      "extensions": {
        "KHR_materials_ior": {
          "ior": 1000
        },
        "KHR_materials_specular": {
          "specularColorFactor": [
            0.24228645268252244,
            0.24228645268252244,
            0.24228645268252244
          ]
        }
      }
    },
    {
      "name": "m_55405b63-6e7f-154a-48a9-db139e3f9f20",
      "doubleSided": true,
      "pbrMetallicRoughness": {
        "roughnessFactor": 0.9527617607977472,
        "metallicFactor": 0,
        "baseColorTexture": {
          "index": 1
        }
      },
      "extensions": {
        "KHR_materials_ior": {
          "ior": 1000
        },
        "KHR_materials_specular": {
          "specularColorFactor": [
            0,
            0,
            0
          ]
        }
      }
    },
    {
      "name": "m_c96b7e96-1486-deff-3ad8-e93356742726",
      "doubleSided": true,
      "pbrMetallicRoughness": {
        "metallicFactor": 0,
        "baseColorTexture": {
          "index": 2
        }
      },
      "extensions": {
        "KHR_materials_ior": {
          "ior": 1000
        },
        "KHR_materials_specular": {
          "specularColorFactor": [
            0,
            0,
            0
          ]
        }
      }
    }
  ],
  "meshes": [
    {
      "name": "Object_0",
      "primitives": [
        {
          "attributes": {
            "NORMAL": 1,
            "POSITION": 0,
            "TEXCOORD_0": 2
          },
          "mode": 4,
          "material": 0,
          "indices": 3
        }
      ]
    },
    {
      "name": "Object_1",
      "primitives": [
        {
          "attributes": {
            "NORMAL": 7,
            "POSITION": 6,
            "TEXCOORD_0": 8
          },
          "mode": 4,
          "material": 1,
          "indices": 4
        }
      ]
    },
    {
      "name": "Object_2",
      "primitives": [
        {
          "attributes": {
            "NORMAL": 10,
            "POSITION": 9,
            "TEXCOORD_0": 11
          },
          "mode": 4,
          "material": 2,
          "indices": 5
        }
      ]
    }
  ],
  "nodes": [
    {
      "name": "Sketchfab_model",
      "rotation": [
        -0.7071067811865475,
        0,
        0,
        0.7071067811865476
      ],
      "children": [
        1
      ]
    },
    {
      "name": "Apple.obj.cleaner.materialmerger.gles",
      "children": [
        2,
        3,
        4
      ]
    },
    {
      "name": "Object_2",
      "mesh": 0
    },
    {
      "name": "Object_3",
      "mesh": 1
    },
    {
      "name": "Object_4",
      "mesh": 2
    }
  ],
  "scenes": [
    {
      "name": "Sketchfab_Scene",
      "nodes": [
        0
      ]
    }
  ],
  "scene": 0,
  "extensionsUsed": [
    "KHR_materials_ior",
    "KHR_materials_specular"
  ]
}